<?xml version="1.0" encoding="utf-8"?>
<!-- Generator: Adobe Illustrator 19.2.1, SVG Export Plug-In . SVG Version: 6.00 Build 0)  -->
<svg version="1.1" id="Layer_1" xmlns="http://www.w3.org/2000/svg" xmlns:xlink="http://www.w3.org/1999/xlink" x="0px" y="0px"
	 viewBox="0 0 169.9 124.1" style="enable-background:new 0 0 169.9 124.1;" xml:space="preserve">
<path d="M163.4,86.6c2.2,0,6.5,0,6.5,0v7.8c0,0-8.4,0-10.1,0c-3.3,0-6.5-1.6-5.6-1.2c-4.7-2.1-6.5-7.2-6.9-12.9l0-65.3h10.6v16.3
	l0,0.1H168v7.6h-10.1l0,0.1l0,42C158.1,85.3,160.6,86.6,163.4,86.6z M104.1,80.6V44.8c-0.3-20.2,35.3-20.3,34.7,0.5l0,17.2
	c0,1.1-0.9,1.9-1.9,1.9l-22.2,0v16.7c0.1,7.9,13.7,7.8,13.7,0v-8h10.5v7.5C139.4,101.3,103.8,100.8,104.1,80.6z M128.2,56.5l0-11.7
	c0-7.8-13.5-7.8-13.7,0v11.7H128.2z M83.6,43.8c0-7.3-12.4-7.1-12.6,0.3v50.3H55.7v-7.8l4.9,0V39.2l-5.8,0v-7.7h14.8l0,5.7
	c0,0,1.8-2.7,6.5-5.3c6-3.3,11.9,0,11-0.4c4.7,2.1,6.5,7.2,6.9,12.9v42.3h6.7v7.7H83.7L83.6,43.8z M41.7,0h7.6v124.1h-7.6V0z
	 M0,80.6V44.8c-0.3-20.2,35.3-20.3,34.7,0.5v6.2H24.3l-0.1-6.7c0-7.7-13.4-7.5-13.7,0.3v36c0.1,7.9,13.7,7.8,13.7,0v-8h10.5v7.5
	C35.3,101.3-0.3,100.8,0,80.6z"/>
</svg>
